HIERARCHY
ROOT Hips
{
	OFFSET -3.958830 18.904000 13.208200
	CHANNELS 6 Xposition Yposition Zposition Zrotation Yrotation Xrotation 
	JOINT LHipJoint
	{
		OFFSET 0.000000 0.000000 0.000000
		CHANNELS 3 Zrotation Yrotation Xrotation
		JOINT LeftUpLeg
		{
			OFFSET 1.800000 -1.400000 0.085000
			CHANNELS 3 Zrotation Yrotation Xrotation
			JOINT LeftLeg
			{
				OFFSET 2.215000 -6.000000 0.000000
				CHANNELS 3 Zrotation Yrotation Xrotation
				JOINT LeftFoot
				{
					OFFSET 2.500000 -6.900000 0.000000
					CHANNELS 3 Zrotation Yrotation Xrotation
					JOINT LeftToeBase
					{
						OFFSET 0.200000 -0.500000 1.950000
						CHANNELS 3 Zrotation Yrotation Xrotation
						End Site
						{
							OFFSET 0.000000 0.000000 0.000000
						}
					}
				}
			}
		}
	}
	JOINT RHipJoint
	{
		OFFSET 0.000000 0.000000 0.000000
		CHANNELS 3 Zrotation Yrotation Xrotation
		JOINT RightUpLeg
		{
			OFFSET -1.800000 -1.400000 0.085000
			CHANNELS 3 Zrotation Yrotation Xrotation
			JOINT RightLeg
			{
				OFFSET -2.215000 -6.000000 0.000000
				CHANNELS 3 Zrotation Yrotation Xrotation
				JOINT RightFoot
				{
					OFFSET -2.500000 -6.900000 0.000000
					CHANNELS 3 Zrotation Yrotation Xrotation
					JOINT RightToeBase
					{
						OFFSET -0.200000 -0.500000 1.950000
						CHANNELS 3 Zrotation Yrotation Xrotation
						End Site
						{
							OFFSET 0.000000 0.000000 0.000000
						}
					}
				}
			}
		}
	}
	JOINT LowerBack
	{
		OFFSET 0.000000 0.000000 0.000000
		CHANNELS 3 Zrotation Yrotation Xrotation
		JOINT Spine
		{
			OFFSET -0.087000 1.940000 -0.288900
			CHANNELS 3 Zrotation Yrotation Xrotation
			JOINT Spine1
			{
				OFFSET 0.000000 1.950000 0.060000
				CHANNELS 3 Zrotation Yrotation Xrotation
				JOINT Neck
				{
					OFFSET 0.000000 0.000000 0.000000
					CHANNELS 3 Zrotation Yrotation Xrotation
					JOINT Neck1
					{
						OFFSET 0.000000 1.600000 0.340000
						CHANNELS 3 Zrotation Yrotation Xrotation
						JOINT Head
						{
							OFFSET 0.000000 1.667000 -0.240000
							CHANNELS 3 Zrotation Yrotation Xrotation
							End Site
							{
								OFFSET 0.000000 0.000000 0.000000
							}
						}
					}
				}
				JOINT LeftShoulder
				{
					OFFSET 0.000000 0.000000 0.000000
					CHANNELS 3 Zrotation Yrotation Xrotation
					JOINT LeftArm
					{
						OFFSET 2.700000 1.550000 -0.730000
						CHANNELS 3 Zrotation Yrotation Xrotation
						JOINT LeftForeArm
						{
							OFFSET 5.450000 0.000000 0.000000
							CHANNELS 3 Zrotation Yrotation Xrotation
							JOINT LeftHand
							{
								OFFSET 3.450000 0.000000 0.000000
								CHANNELS 3 Zrotation Yrotation Xrotation
								JOINT LeftHandIndex1
								{
									OFFSET 0.750000 0.000000 0.000000
									CHANNELS 3 Zrotation Yrotation Xrotation
									End Site
									{
										OFFSET 0.000000 0.000000 0.000000
									}
								}
							}
						}
					}
				}
				JOINT RightShoulder
				{
					OFFSET 0.000000 0.000000 0.000000
					CHANNELS 3 Zrotation Yrotation Xrotation
					JOINT RightArm
					{
						OFFSET -2.700000 1.550000 -0.730000
						CHANNELS 3 Zrotation Yrotation Xrotation
						JOINT RightForeArm
						{
							OFFSET -5.450000 0.000000 0.000000
							CHANNELS 3 Zrotation Yrotation Xrotation
							JOINT RightHand
							{
								OFFSET -3.450000 0.000000 0.000000
								CHANNELS 3 Zrotation Yrotation Xrotation
								JOINT RightHandIndex1
								{
									OFFSET -0.750000 0.000000 0.000000
									CHANNELS 3 Zrotation Yrotation Xrotation
									End Site
									{
										OFFSET 0.000000 0.000000 0.000000
									}
								}
							}
						}
					}
				}
			}
		}
	}
}
MOTION
Frames: 9
Frame Time: 0.016667
-2.211450 17.745200 0.064030 175.875246 25.681512 175.881839 -15.137118 12.276442 4.002261 -9.676586 0.365696 8.854071 -10.774465 5.630988 1.091320 0.279514 4.903709 2.985760 0.144010 0.241560 -0.011280 18.513894 -10.644685 2.847296 10.605217 -0.509222 -27.656116 -1.235822 -1.811539 12.038481 0.301181 -1.785376 3.671114 0.321200 0.347300 0.054840 -3.977677 -0.776603 -7.592242 3.939018 6.074141 4.946475 3.854878 6.511000 14.580589 -6.685172 -3.969568 -10.789002 -11.684726 5.356475 40.444096 1.565940 3.758120 0.297080 2.217482 -28.599342 -2.763520 -15.583897 -49.974972 8.085226 20.858372 -4.564238 -3.126765 -4.362782 2.963341 -0.155040 0.302900 -0.186720 0.100360 10.811144 32.371884 11.903596 57.358737 37.107054 8.652930 78.283009 71.121981 41.344042 2.833947 -1.575109 -0.129580 0.200570 0.040900 0.037050 
-2.209440 17.744850 0.062530 175.645498 26.394456 175.770584 -15.132658 12.233143 4.030476 -9.927724 0.325609 8.918024 -11.019250 5.600477 0.864919 0.278978 4.908590 2.980936 0.149310 0.247410 -0.006560 18.519077 -10.672910 2.843574 10.816860 -0.559116 -27.770812 -1.582894 -1.782285 12.286494 0.297739 -1.788267 3.668291 0.325330 0.343030 0.053910 -4.004029 -0.671357 -7.604419 4.024585 6.315075 4.886698 3.215048 6.979382 14.722189 -6.283133 -4.072412 -10.896061 -11.779729 5.443337 40.392934 1.546760 3.793710 0.081080 0.869515 -28.567067 -2.470729 -17.200479 -49.890436 7.467844 24.409056 -5.815123 -3.964130 -4.331165 2.982128 -0.150280 0.299520 -0.183490 0.099130 11.377152 32.425177 11.945502 57.064289 37.193617 8.400194 73.373244 71.662500 38.641866 2.709062 -1.683119 -0.129860 0.203010 0.040430 0.034540 
-2.205560 17.742630 0.058260 175.406537 27.096876 175.700665 -15.135983 12.188681 4.059369 -10.209282 0.278691 9.015128 -11.174530 5.550620 0.542553 0.281037 4.911590 2.978667 0.148150 0.246580 -0.007850 18.519337 -10.691358 2.839514 11.120538 -0.618272 -27.897088 -2.068395 -1.704860 12.392877 0.300792 -1.787240 3.668041 0.326610 0.343970 0.054710 -4.011855 -0.580951 -7.615486 3.917517 6.551257 4.761229 2.759012 7.429961 14.830956 -5.938291 -4.145231 -10.988551 -11.776453 5.479100 40.216798 1.432760 3.879800 0.095630 -0.191322 -28.502214 -2.170984 -18.976787 -49.789188 7.010741 27.595429 -7.448578 -4.868438 -4.298608 2.999910 -0.153320 0.302840 -0.186980 0.097340 11.797944 32.478076 11.946358 57.004140 37.316193 7.818760 68.292512 71.686599 35.544457 2.573579 -1.808311 -0.130460 0.200890 0.042650 0.033300 
-2.199450 17.738560 0.052700 175.277426 27.945367 175.727707 -15.137382 12.132334 4.080392 -10.350260 0.121493 9.034782 -11.482860 5.499504 0.274001 0.287966 4.917709 2.978770 0.145020 0.243900 -0.013970 18.521969 -10.710021 2.851041 11.674892 -0.649456 -28.033544 -2.632366 -1.592352 12.417818 0.304978 -1.778993 3.673732 0.326230 0.348190 0.051960 -4.030502 -0.461554 -7.632898 3.886298 6.935336 4.593131 2.467681 8.015547 14.796658 -5.662990 -4.147472 -11.046070 -11.671705 5.333321 40.114445 1.522680 3.779060 0.230480 -0.993691 -28.450099 -1.949856 -20.788264 -49.899638 6.769120 30.336472 -9.309098 -5.822888 -4.258631 3.009041 -0.157450 0.304650 -0.192400 0.099410 12.108879 32.534127 11.917127 57.035683 37.237200 6.706747 63.606602 71.092605 32.238285 2.456999 -1.916538 -0.132240 0.201000 0.043100 0.035330 
-2.190440 17.732890 0.046620 175.136486 28.661374 175.782216 -15.142470 12.083973 4.102344 -10.514983 -0.051928 9.014728 -11.716065 5.442402 0.058548 0.293005 4.915842 2.980606 0.143940 0.241760 -0.018500 18.519990 -10.727070 2.859786 12.164598 -0.715384 -28.166823 -3.095988 -1.489837 12.323566 0.306324 -1.762530 3.681067 0.324240 0.350650 0.050400 -4.032210 -0.360016 -7.654337 3.746798 7.317717 4.440181 2.214097 8.622025 14.634731 -5.369281 -4.184122 -11.139043 -11.677087 5.289399 40.132412 1.753190 3.701400 0.292830 -1.681100 -28.395363 -1.654065 -23.055551 -50.039253 6.718231 32.697147 -11.691471 -6.908460 -4.208658 3.006341 -0.155320 0.302120 -0.193450 0.102170 12.284360 32.643652 11.818474 57.191864 37.088436 5.521597 60.485818 70.056492 29.602984 2.389781 -1.978421 -0.133320 0.201720 0.043210 0.037190 
-2.185330 17.727780 0.044090 175.175834 29.310448 175.921934 -15.142687 12.032681 4.119030 -10.528832 -0.272825 8.965571 -11.974801 5.356830 -0.255715 0.301226 4.912816 2.982868 0.135840 0.232060 -0.024410 18.522200 -10.747692 2.875392 12.796697 -0.766957 -28.365694 -3.629198 -1.392245 12.365690 0.308945 -1.753802 3.684625 0.316420 0.352590 0.051920 -4.047737 -0.242821 -7.679052 3.799552 7.688020 4.363403 2.112808 9.148652 14.582722 -5.071771 -4.241260 -11.287206 -11.670738 5.250471 40.114092 1.718140 3.744390 0.483660 -2.439844 -28.319287 -1.273522 -24.988552 -49.924365 6.329516 35.545609 -14.160627 -8.213593 -4.159392 3.004835 -0.157360 0.303280 -0.195340 0.101150 12.542409 32.754026 11.750856 57.061249 37.049913 4.399785 57.460414 69.495894 27.380631 2.328918 -2.026109 -0.132670 0.197070 0.045930 0.038610 
-2.180570 17.726280 0.039100 175.104661 29.906367 175.926792 -15.149739 11.969138 4.146494 -10.574689 -0.531673 9.084746 -12.357619 5.266786 -0.652086 0.311759 4.932386 2.975939 0.133000 0.228560 -0.023530 18.519920 -10.770852 2.877906 13.288735 -0.858814 -28.413669 -4.212741 -1.289076 12.272510 0.308317 -1.749812 3.687712 0.312710 0.351220 0.054120 -4.047145 -0.109852 -7.704550 3.621872 8.051777 4.305191 1.967690 9.676321 14.704401 -4.672381 -4.138773 -11.442160 -11.269209 5.235540 40.114899 1.621480 3.961370 0.492720 -3.467529 -28.292892 -0.869410 -26.899547 -49.674574 5.722393 39.136175 -16.620873 -9.839205 -4.110966 2.997411 -0.156860 0.305230 -0.194420 0.099120 12.876733 32.829778 11.712946 56.901510 37.301372 3.499568 54.012440 69.485382 25.259345 2.259871 -2.065056 -0.132040 0.193440 0.046690 0.036390 
-2.172910 17.724140 0.036130 174.989422 31.044844 175.968828 -15.160597 11.888715 4.180925 -10.864143 -0.728137 9.158563 -12.510768 5.119788 -1.234391 0.321006 4.918108 2.979842 0.130970 0.230120 -0.026440 18.516017 -10.794335 2.888349 13.957032 -0.927173 -28.533049 -4.716131 -1.195630 12.345229 0.308016 -1.752443 3.688556 0.311180 0.352120 0.055840 -4.051350 0.055868 -7.728445 3.382681 8.613672 4.217194 1.844691 10.410611 14.688005 -4.292663 -4.085181 -11.528547 -10.932563 5.201615 39.952474 1.605110 4.082980 0.479410 -4.444215 -28.105984 -0.587915 -28.797010 -49.532875 5.437066 41.653602 -19.495500 -11.386723 -4.065749 2.974403 -0.162460 0.308140 -0.194970 0.098710 13.199909 32.858464 11.640056 56.638809 37.747183 2.636742 50.750145 69.439286 23.247889 2.194654 -2.102904 -0.128170 0.190310 0.046910 0.038640 
-2.162530 17.718050 0.031460 174.817280 32.017983 176.059871 -15.172068 11.814382 4.213981 -11.124711 -0.934572 9.168883 -12.781938 4.982030 -1.733807 0.336928 4.914771 2.984739 0.118170 0.217160 -0.039240 18.510752 -10.815598 2.895589 14.548992 -0.995396 -28.697178 -5.195681 -1.116300 12.420721 0.311830 -1.755788 3.692658 0.300360 0.360700 0.056700 -4.048714 0.207566 -7.752647 3.114348 9.102799 4.073846 1.483567 11.138169 14.387543 -3.873541 -4.016794 -11.623041 -10.654194 5.008152 39.927408 1.670480 4.016500 0.768340 -5.390761 -28.031903 -0.277241 -30.397840 -49.246821 4.930009 44.408683 -21.863972 -12.991431 -4.029396 2.951769 -0.168400 0.312720 -0.200060 0.099980 13.417884 32.988828 11.434619 56.548597 37.849247 1.709460 49.697837 67.990127 21.830854 2.179087 -2.118731 -0.127530 0.188010 0.051020 0.044020 
